<svg width="600" height="60" viewBox="0 0 600 60" fill="none" xmlns="http://www.w3.org/2000/svg">
<path d="M18 36V42H24V36H18ZM22 40H20V38H22V40Z" fill="white"/>
<path d="M36 18V24H42V18H36ZM40 22H38V20H40V22Z" fill="white"/>
<path d="M23.142 39.145L20.857 36.855L36.857 20.857L39.142 23.142L23.142 39.145Z" fill="white"/>
<path d="M100 24.565L97.904 39.395L83.07 42L76 28.773L86.463 18L100 24.565Z" fill="white"/>
<path d="M140 20H160V40H140V20Z" fill="white"/>
<path d="M221 30C221 36.078 216.074 41 210 41C203.926 41 199 36.078 199 30C199 23.926 203.926 19 210 19C216.074 19 221 23.926 221 30Z" fill="white"/>
<path d="M270 19C265.029 19 261 23.029 261 28C261 32.971 266.001 40 270 42C274.001 40 279 32.971 279 28C279 23.029 274.971 19 270 19ZM270 31.5C267.516 31.5 265.5 29.486 265.5 27C265.5 24.516 267.516 22.5 270 22.5C272.485 22.5 274.5 24.516 274.5 27C274.5 29.486 272.485 31.5 270 31.5Z" fill="white"/>
<path d="M337 30.156V30.563V36.167C337 37.825 335.656 39.167 334 39.167H324C322.345 39.167 321 37.825 321 36.167V26.167C321 24.51 322.345 23.167 324 23.167H330.345L333.535 19.997H324C320.687 19.997 318 22.684 318 25.997V35.997C318 39.31 320.687 41.997 324 41.997H334C337.314 41.997 340 39.31 340 35.997V27.188L337 30.156" fill="white"/>
<path d="M338.72 24.637L329.828 33.529H327V30.7L335.89 21.81L338.72 24.637Z" fill="white"/>
<path d="M340.713 22.6433L337.885 19.8144L340.714 16.9865L343.542 19.8154L340.713 22.6433Z" fill="white"/>
<path d="M381 42H399V24H381V42ZM395 26H397V40H395V26ZM391 26H393V40H391V26ZM387 26H389V40H387V26ZM383 26H385V40H383V26Z" fill="white"/>
<path d="M395 20V16H385V20H379V22H401V20H395ZM393 20H387V18H393V20Z" fill="white"/>
<path d="M581.657 30C581.657 36.078 576.731 41 570.657 41C564.583 41 559.657 36.078 559.657 30C559.657 23.926 564.583 19 570.657 19C576.731 19 581.657 23.926 581.657 30Z" stroke="white" stroke-width="2"/>
</svg>
